PathFileType  4	(X/Y/Z) C:\Users\antoi\Documents\MyRepositories\mobilecap\ResultsAnalysis
DataRate	CameraRate	NumFrames	NumMarkers	Units	OrigDataRate	OrigDataStartFrame	OrigNumFrames
100.0	100.0	4	51	mm	100.0	225	256
Frame#	Time	r_knee			r_shank_antsup			r_ankle			r_calc			r_5meta			r_toe			L_knee			L_shank_antsup			L_ankle			L_calc			L_5meta			L_toe			r_sh2			r_sh3			r_sh4			L_sh2			L_sh3			r_thigh1			r_thigh2			r_thigh3			r_thigh4			r_thigh5			L_thigh1			L_thigh2			L_thigh3			L_thigh4			r.ASIS			r.PSIS			L.ASIS			L.PSIS			C7			R_Shoulder			L_Shoulder			R_Sternum			L_Sternum			R_humerus			R_elbow_med			R_elbow_lat			R_forearm			R_wrist_radius			R_wrist_ulna			L_humerus			L_elbow_med			L_elbow_lat			L_forearm			L_wrist_radius			L_wrist_ulna			R_HJC			L_HJC			R_HJC_reg			L_HJC_reg			
		X1	Y1	Z1	X2	Y2	Z2	X3	Y3	Z3	X4	Y4	Z4	X5	Y5	Z5	X6	Y6	Z6	X7	Y7	Z7	X8	Y8	Z8	X9	Y9	Z9	X10	Y10	Z10	X11	Y11	Z11	X12	Y12	Z12	X13	Y13	Z13	X14	Y14	Z14	X15	Y15	Z15	X16	Y16	Z16	X17	Y17	Z17	X18	Y18	Z18	X19	Y19	Z19	X20	Y20	Z20	X21	Y21	Z21	X22	Y22	Z22	X23	Y23	Z23	X24	Y24	Z24	X25	Y25	Z25	X26	Y26	Z26	X27	Y27	Z27	X28	Y28	Z28	X29	Y29	Z29	X30	Y30	Z30	X31	Y31	Z31	X32	Y32	Z32	X33	Y33	Z33	X34	Y34	Z34	X35	Y35	Z35	X36	Y36	Z36	X37	Y37	Z37	X38	Y38	Z38	X39	Y39	Z39	X40	Y40	Z40	X41	Y41	Z41	X42	Y42	Z42	X43	Y43	Z43	X44	Y44	Z44	X45	Y45	Z45	X46	Y46	Z46	X47	Y47	Z47	X48	Y48	Z48	X49	Y49	Z49	X50	Y50	Z50	X51	Y51	Z51	

225	2.24000000	-76.61614	966.66833	-262.81801	-141.07089	823.17073	-244.26797	-186.17147	466.63958	-294.59976	-227.37388	471.79693	-371.12020	-94.18811	348.40892	-257.01406	-35.60309	366.04633	-288.86223	-47.05642	989.74625	-694.65276	-11.52399	791.88669	-704.28860	-119.81758	505.04033	-732.67729	-162.43830	495.05614	-654.69955	-50.13184	370.37845	-803.21645	15.59630	375.83966	-761.42867	-164.55427	713.12573	-244.95175	-68.51242	814.55785	-261.48623	-87.31885	702.75496	-270.06433	-84.37848	813.01275	-750.13862	-101.96671	693.40661	-744.97624	-98.93431	1265.31094	-247.42169	-62.51189	1156.21364	-238.46440	-116.80588	1116.13663	-243.28192	-195.69097	1228.21729	-296.88796	-161.54532	1117.12853	-277.78306	-131.56274	1281.82652	-671.53756	-106.11093	1148.46254	-696.27131	-24.03756	1292.14677	-651.50904	-1.51039	1160.35283	-670.05057	-88.45725	1549.01405	-305.16297	-255.65294	1568.34017	-418.25971	-49.94535	1551.02847	-575.73483	-243.03756	1574.10191	-509.16708	-137.92871	2053.20012	-473.43611	-60.78103	2026.85689	-298.47314	-61.52841	2003.37365	-635.26582	-4.19012	1959.88594	-434.35059	-0.88956	1954.52604	-485.12299	-138.91697	1823.28413	-135.93643	-256.61419	1716.99869	-132.74011	-240.75688	1776.16325	-69.17090	-83.90096	1638.71556	-8.39332	-17.91605	1576.68355	10.39651	-43.28442	1575.49070	39.01438	-75.67162	1738.55742	-749.27723	-188.32735	1664.07392	-767.15840	-122.44250	1674.32969	-821.75466	31.11357	1602.85709	-705.68201	74.86450	1586.97072	-654.75477	81.50234	1562.22972	-678.02744	-150.84910	1449.20624	-353.62301	-129.24033	1455.20609	-549.82165	-141.88300	1455.51815	-357.90616	-117.13643	1466.82096	-536.22535	
226	2.25000000	-76.78972	956.35649	-260.76745	-140.62581	812.68177	-241.82988	-184.21120	456.20789	-291.02888	-226.08865	460.25506	-367.48549	-91.26269	339.37989	-252.62729	-33.21810	356.51004	-285.26037	-45.72838	979.83232	-693.06903	-9.94506	782.13459	-703.30689	-117.50688	494.86313	-732.76635	-160.74272	483.96358	-655.19199	-45.80679	361.13686	-803.05249	19.62405	367.29268	-760.90556	-163.77007	702.73079	-242.39047	-68.12905	804.29984	-259.04157	-86.48619	692.34000	-267.57626	-82.83855	803.09101	-748.86618	-100.28470	683.54140	-744.40671	-99.28517	1255.20762	-245.58333	-62.71193	1145.74113	-236.41014	-117.24916	1106.31655	-241.31047	-195.68175	1218.71486	-294.95379	-161.66443	1107.42720	-276.33427	-129.67960	1272.32180	-670.21209	-104.54906	1138.80725	-694.81524	-22.24745	1282.06378	-649.13990	-0.02863	1150.21017	-667.84900	-88.29010	1538.58889	-303.08918	-255.00676	1557.87039	-416.77072	-48.44398	1540.91504	-573.03702	-242.22738	1563.70326	-507.47560	-137.96813	2043.00642	-471.24700	-61.84365	2017.32182	-296.28688	-60.39488	1994.12504	-632.33138	-3.98179	1950.09626	-431.30478	-0.76981	1944.60515	-482.17043	-142.79868	1814.08034	-134.97043	-261.13780	1708.26911	-133.31162	-245.40560	1766.87594	-69.19834	-86.46928	1631.23526	-10.77972	-19.44977	1570.19408	6.84506	-44.70274	1568.27143	35.77629	-74.04771	1728.62323	-745.57182	-186.18807	1653.43634	-763.53948	-119.90335	1663.46815	-817.88755	32.88633	1594.89300	-699.09826	76.09576	1579.83959	-647.21512	83.49324	1555.29251	-670.67005	-150.39388	1438.76648	-351.70771	-127.87961	1444.98724	-547.79781	-141.16399	1445.26406	-355.88340	-116.08770	1456.70921	-533.86476	
227	2.26000000	-76.79245	945.23301	-258.53701	-140.06306	801.33788	-239.40519	-182.31369	444.89591	-287.25068	-224.76755	447.83263	-363.54256	-88.55716	329.14357	-248.24416	-30.83981	346.07177	-281.36143	-44.23944	969.05638	-691.80928	-8.28875	771.39150	-702.47338	-115.34649	483.90814	-732.82594	-159.13730	472.06121	-655.76582	-41.77625	350.92780	-802.89845	23.27983	357.84232	-760.49473	-162.94453	691.52026	-239.81107	-67.60459	793.15478	-256.48368	-85.54809	681.12276	-264.96618	-81.39900	792.23641	-747.46625	-98.63277	672.79149	-743.87791	-99.88900	1243.65251	-243.68855	-63.04529	1134.82452	-234.33730	-117.56649	1095.17156	-239.35196	-195.80444	1208.38885	-292.71694	-161.72554	1096.57887	-274.80891	-127.88656	1261.65717	-668.92755	-102.98558	1128.16333	-693.33100	-20.52294	1271.06324	-647.01530	1.48214	1139.33661	-665.93136	-88.23307	1527.12797	-301.07040	-254.55967	1546.46407	-415.31435	-46.97705	1529.60884	-570.39590	-241.47744	1552.27040	-506.06799	-138.01812	2031.88823	-468.94352	-62.91765	2006.66510	-294.01090	-60.06524	1983.70653	-629.97361	-3.64628	1939.36689	-428.07304	-0.66062	1933.76837	-479.08003	-146.64190	1803.72983	-133.92764	-265.59389	1698.29873	-133.78183	-250.05859	1756.43121	-69.25185	-88.81616	1622.91314	-13.14052	-20.65730	1562.91624	3.36586	-45.57272	1560.46828	32.71475	-72.14622	1717.76891	-742.13446	-183.69026	1641.85976	-760.04814	-117.12658	1651.70011	-814.04837	34.94244	1586.07610	-692.55947	77.53236	1571.81228	-639.98998	85.75084	1547.82584	-664.04587	-150.15985	1427.32514	-349.83566	-126.66003	1433.64133	-545.80733	-140.74830	1434.07565	-353.89044	-115.14298	1445.44095	-531.53017	
228	2.27000000	-76.61819	933.22985	-256.18844	-139.38991	789.24597	-236.85946	-180.51638	432.74632	-283.35372	-223.50724	434.46394	-359.40846	-85.89355	318.04959	-243.46570	-28.46797	334.81578	-277.26321	-42.52583	957.37549	-690.77810	-6.54022	759.66966	-701.80853	-113.32708	472.10845	-732.91883	-157.60119	459.38268	-656.40007	-37.95366	339.94747	-803.02753	26.60777	347.38675	-760.00135	-162.01663	679.21068	-237.04221	-66.88779	781.07320	-253.92993	-84.54333	669.04735	-262.04833	-79.78017	780.70936	-746.48188	-96.95612	661.14686	-743.27303	-100.29418	1231.21261	-241.88551	-63.67046	1123.76699	-232.24400	-117.76584	1082.86306	-237.53142	-195.57274	1196.44184	-291.47594	-161.81484	1084.37915	-273.14265	-126.18608	1249.90389	-667.58419	-101.41343	1116.40050	-691.76609	-18.89817	1259.21619	-645.15862	3.02949	1127.62716	-664.38497	-88.19620	1514.83404	-298.89423	-254.34649	1534.16713	-413.82563	-45.96766	1517.07115	-568.17098	-240.86986	1539.90400	-504.77753	-138.10946	2019.85926	-466.84359	-64.00378	1994.95984	-291.59690	-59.75134	1972.17767	-627.86414	-4.01624	1927.33727	-425.34489	-0.60472	1921.91091	-476.14376	-150.41599	1792.27773	-132.81851	-269.88692	1686.99828	-134.13591	-254.48650	1744.87928	-69.26715	-90.94131	1613.76068	-15.44508	-21.60299	1554.85898	-0.06215	-46.09569	1551.87226	29.58741	-69.94509	1705.97088	-738.86119	-180.88960	1629.32394	-756.67149	-113.97420	1639.17501	-810.21330	37.21809	1576.42284	-686.18844	79.20744	1563.03669	-632.92083	88.19676	1539.54676	-657.62266	-150.12236	1415.03441	-347.91386	-125.86253	1421.16857	-543.79847	-140.65088	1421.73728	-351.87326	-114.33451	1432.94047	-529.48519	
